<svg fill="none" height="16" viewBox="0 0 16 16" width="16" xmlns="http://www.w3.org/2000/svg"><g fill="#212121"><path d="m8.80802 2.10167c-.33013-.66893-1.28399-.66892-1.61412 0l-1.52109 3.08205-3.40125.49423c-.7382.10727-1.03295 1.01444-.49879 1.53512l2.46117 2.39905-.581 3.38748c-.1261.7352.64559 1.2959 1.30585.9488l.91092-.4789c-.55044-.8565-.86971-1.8757-.86971-2.9695 0-2.95088 2.32389-5.35898 5.2414-5.49403z"/><path d="m15 10.5c0 2.4853-2.0147 4.5-4.5 4.5-2.48528 0-4.5-2.0147-4.5-4.5 0-2.48528 2.01472-4.5 4.5-4.5 2.4853 0 4.5 2.01472 4.5 4.5zm-4-2c0-.27614-.2239-.5-.5-.5s-.5.22386-.5.5v1.5h-1.5c-.27614 0-.5.2239-.5.5s.22386.5.5.5h1.5v1.5c0 .2761.2239.5.5.5s.5-.2239.5-.5v-1.5h1.5c.2761 0 .5-.2239.5-.5s-.2239-.5-.5-.5h-1.5z"/></g></svg>