<?xml version="1.0" encoding="utf-8"?>
<!-- Generator: Adobe Illustrator 27.2.0, SVG Export Plug-In . SVG Version: 6.00 Build 0)  -->
<svg version="1.1" id="Layer_1" xmlns="http://www.w3.org/2000/svg" xmlns:xlink="http://www.w3.org/1999/xlink" x="0px" y="0px"
	 viewBox="-60 0 650 650" style="enable-background:new 0 0 512 512;" xml:space="preserve">
<style type="text/css">
	.st0{fill:#212121;}
</style>
<g>
	<path class="st0" d="M256,0c141.36,0,255.96,114.6,255.96,255.96c0,141.36-114.6,255.96-255.96,255.96
		c-41.99,0-82.54-10.14-118.87-29.22L27.31,511.29c-11.63,3.03-23.51-3.94-26.54-15.57c-0.94-3.59-0.94-7.37,0-10.97l28.57-109.77
		C10.21,338.62,0.04,298.01,0.04,255.96C0.04,114.6,114.64,0,256,0z M256,345.55c-14.14,0-25.6,11.46-25.6,25.6
		c0,14.14,11.46,25.6,25.6,25.6s25.6-11.46,25.6-25.6C281.6,357.01,270.14,345.55,256,345.55z M256,121.58
		c-38.88,0-70.39,31.51-70.39,70.39c0,10.6,8.59,19.2,19.2,19.2c9.72,0,17.75-7.22,19.02-16.59l0.34-5.88
		c1.64-16.13,15.26-28.72,31.83-28.72c17.67,0,32,14.32,32,32c0,13.79-3.45,20.61-16.51,34.1l-7.78,7.91
		c-19.29,20.08-26.9,34.5-26.9,60.37c0,10.6,8.6,19.2,19.2,19.2c10.6,0,19.2-8.59,19.2-19.2c0-13.79,3.46-20.61,16.51-34.1
		l7.78-7.91c19.29-20.08,26.9-34.5,26.9-60.37C326.39,153.1,294.88,121.58,256,121.58z"/>
</g>
</svg>
